HIERARCHY
ROOT Hips
{
	OFFSET 0.000000 0.000000 0.000000
	CHANNELS 6 Xposition Yposition Zposition Zrotation Yrotation Xrotation 
	JOINT LHipJoint
	{
		OFFSET 0.000000 0.000000 0.000000
		CHANNELS 3 Zrotation Yrotation Xrotation
		JOINT LeftUpLeg
		{
			OFFSET 1.363060 -1.794630 0.839290
			CHANNELS 3 Zrotation Yrotation Xrotation
			JOINT LeftLeg
			{
				OFFSET 2.448110 -6.726130 0.000000
				CHANNELS 3 Zrotation Yrotation Xrotation
				JOINT LeftFoot
				{
					OFFSET 2.562200 -7.039590 0.000000
					CHANNELS 3 Zrotation Yrotation Xrotation
					JOINT LeftToeBase
					{
						OFFSET 0.157640 -0.433110 2.322550
						CHANNELS 3 Zrotation Yrotation Xrotation
						End Site
						{
							OFFSET 0.000000 0.000000 0.000000
						}
					}
				}
			}
		}
	}
	JOINT RHipJoint
	{
		OFFSET 0.000000 0.000000 0.000000
		CHANNELS 3 Zrotation Yrotation Xrotation
		JOINT RightUpLeg
		{
			OFFSET -1.305520 -1.794630 0.839290
			CHANNELS 3 Zrotation Yrotation Xrotation
			JOINT RightLeg
			{
				OFFSET -2.542530 -6.985550 0.000000
				CHANNELS 3 Zrotation Yrotation Xrotation
				JOINT RightFoot
				{
					OFFSET -2.568260 -7.056230 0.000000
					CHANNELS 3 Zrotation Yrotation Xrotation
					JOINT RightToeBase
					{
						OFFSET -0.164730 -0.452590 2.363150
						CHANNELS 3 Zrotation Yrotation Xrotation
						End Site
						{
							OFFSET 0.000000 0.000000 0.000000
						}
					}
				}
			}
		}
	}
	JOINT LowerBack
	{
		OFFSET 0.000000 0.000000 0.000000
		CHANNELS 3 Zrotation Yrotation Xrotation
		JOINT Spine
		{
			OFFSET 0.028270 2.035590 -0.193380
			CHANNELS 3 Zrotation Yrotation Xrotation
			JOINT Spine1
			{
				OFFSET 0.056720 2.048850 -0.042750
				CHANNELS 3 Zrotation Yrotation Xrotation
				JOINT Neck
				{
					OFFSET 0.000000 0.000000 0.000000
					CHANNELS 3 Zrotation Yrotation Xrotation
					JOINT Neck1
					{
						OFFSET -0.054170 1.746240 0.172020
						CHANNELS 3 Zrotation Yrotation Xrotation
						JOINT Head
						{
							OFFSET 0.104070 1.761360 -0.123970
							CHANNELS 3 Zrotation Yrotation Xrotation
							End Site
							{
								OFFSET 0.000000 0.000000 0.000000
							}
						}
					}
				}
				JOINT LeftShoulder
				{
					OFFSET 0.000000 0.000000 0.000000
					CHANNELS 3 Zrotation Yrotation Xrotation
					JOINT LeftArm
					{
						OFFSET 3.362410 1.200890 -0.311210
						CHANNELS 3 Zrotation Yrotation Xrotation
						JOINT LeftForeArm
						{
							OFFSET 4.983000 -0.000000 -0.000000
							CHANNELS 3 Zrotation Yrotation Xrotation
							JOINT LeftHand
							{
								OFFSET 3.483560 -0.000000 -0.000000
								CHANNELS 3 Zrotation Yrotation Xrotation
								JOINT LeftFingerBase
								{
									OFFSET 0.000000 0.000000 0.000000
									CHANNELS 3 Zrotation Yrotation Xrotation
									JOINT LeftHandIndex1
									{
										OFFSET 0.715260 -0.000000 -0.000000
										CHANNELS 3 Zrotation Yrotation Xrotation
										End Site
										{
											OFFSET 0.000000 0.000000 0.000000
										}
									}
								}
								JOINT LThumb
								{
									OFFSET 0.000000 0.000000 0.000000
									CHANNELS 3 Zrotation Yrotation Xrotation
									End Site
									{
										OFFSET 0.000000 0.000000 0.000000
									}
								}
							}
						}
					}
				}
				JOINT RightShoulder
				{
					OFFSET 0.000000 0.000000 0.000000
					CHANNELS 3 Zrotation Yrotation Xrotation
					JOINT RightArm
					{
						OFFSET -3.136600 1.374050 -0.404650
						CHANNELS 3 Zrotation Yrotation Xrotation
						JOINT RightForeArm
						{
							OFFSET -5.241900 -0.000000 -0.000000
							CHANNELS 3 Zrotation Yrotation Xrotation
							JOINT RightHand
							{
								OFFSET -3.444170 -0.000000 -0.000000
								CHANNELS 3 Zrotation Yrotation Xrotation
								JOINT RightFingerBase
								{
									OFFSET 0.000000 0.000000 0.000000
									CHANNELS 3 Zrotation Yrotation Xrotation
									JOINT RightHandIndex1
									{
										OFFSET -0.622530 -0.000000 -0.000000
										CHANNELS 3 Zrotation Yrotation Xrotation
										End Site
										{
											OFFSET 0.000000 0.000000 0.000000
										}
									}
								}
								JOINT RThumb
								{
									OFFSET 0.000000 0.000000 0.000000
									CHANNELS 3 Zrotation Yrotation Xrotation
									End Site
									{
										OFFSET 0.000000 0.000000 0.000000
									}
								}
							}
						}
					}
				}
			}
		}
	}
}
MOTION
Frames: 4
Frame Time: 0.016667
-1.804637 18.193112 24.086159 1.205260 -4.231212 9.000610 0.093693 14.336562 -0.822904 -24.475397 -5.313410 -7.182483 -7.637413 -8.157997 -16.059190 2.500666 9.141159 29.911376 0.000000 0.000000 0.000000 5.646188 -16.258862 -2.332749 21.406453 19.604601 -14.140418 -11.956259 -15.063748 71.782683 22.746987 -20.311931 -10.788902 0.000000 0.000000 0.000000 -4.258664 0.974411 9.113828 4.108457 0.562994 -0.769574 0.721568 1.155087 -7.936034 -0.236973 0.085608 -1.333654 2.178674 -0.002134 2.366322 0.000000 0.000000 0.000000 -1.058463 13.691316 10.604222 -70.377450 -6.030531 7.163602 -169.241877 -89.158464 -179.897707 5.478296 -11.516386 0.045825 5.541774 -11.491933 0.000000 0.000000 0.000000 0.000000 0.000000 0.000000 0.000000 2.495538 -14.772345 7.850618 56.706879 4.397449 18.415419 22.469108 65.463625 0.158292 -0.357382 6.472208 0.078717 -0.362782 6.473765 0.000000 0.000000 0.000000 0.000000 0.000000 0.000000 0.000000 
-1.773807 18.252390 24.320173 1.467677 -4.268869 9.013588 -0.347117 14.340624 -0.821281 -24.599828 -5.353347 -7.197595 -7.203565 -7.463616 -14.209880 2.039205 8.054964 26.989929 0.000000 0.000000 0.000000 5.319025 -16.282578 -1.335357 20.312670 19.298834 -14.409925 -11.214529 -15.282579 70.640411 22.419429 -20.583464 -9.239424 0.000000 0.000000 0.000000 -3.351504 1.101367 8.192920 2.918705 0.473270 0.771128 0.272048 1.124697 -8.266282 0.059476 0.050824 -1.329622 2.200247 -0.004751 2.389977 0.000000 0.000000 0.000000 -1.037316 13.615350 10.328038 -69.892291 -6.077641 8.481567 -170.428849 -89.834304 -179.883670 5.500315 -11.930395 0.052357 5.568325 -11.904847 0.000000 0.000000 0.000000 0.000000 0.000000 0.000000 0.000000 1.694570 -14.675952 7.774616 58.429197 4.434099 18.554030 22.390246 66.689624 0.196418 -0.300569 7.693587 0.097538 -0.308100 7.695613 0.000000 0.000000 0.000000 0.000000 0.000000 0.000000 0.000000 
-1.757822 18.300541 24.533174 1.677442 -4.071397 9.017715 -0.667337 14.183024 -0.943677 -24.694769 -5.366888 -7.090293 -6.797033 -6.859681 -12.475240 1.675858 7.025347 24.407230 0.000000 0.000000 0.000000 5.147512 -15.994508 -0.627491 19.206656 18.720743 -14.420546 -10.287521 -15.754295 69.442271 22.265790 -20.921053 -8.099527 0.000000 0.000000 0.000000 -2.721834 1.155118 7.656389 2.056561 0.386049 1.722671 -0.116542 1.069052 -8.349716 0.376853 0.019360 -1.365797 2.241904 -0.005623 2.413237 0.000000 0.000000 0.000000 -0.848428 13.408194 10.118745 -69.550576 -6.058218 9.881536 8.126846 -89.376013 0.139455 5.442714 -12.342517 0.063507 5.514053 -12.316695 0.000000 0.000000 0.000000 0.000000 0.000000 0.000000 0.000000 0.760184 -14.489034 7.707100 60.250395 4.400190 18.857767 21.987282 68.409596 0.242112 -0.279033 8.952940 0.120065 -0.288868 8.955483 0.000000 0.000000 0.000000 0.000000 0.000000 0.000000 0.000000 
-1.749239 18.342145 24.731521 2.005456 -4.228592 8.674214 -0.402842 13.544242 -1.821053 -25.506179 -4.440887 -5.521084 -6.076172 -6.362680 -11.516586 1.447851 6.518481 22.946736 0.000000 0.000000 0.000000 4.922730 -15.491948 0.060915 18.134777 18.023662 -14.063910 -9.565602 -16.126442 68.274105 21.932408 -21.115095 -6.868041 0.000000 0.000000 0.000000 -2.505944 1.285784 7.656454 1.406886 0.407451 2.332592 -0.444135 1.106760 -8.294387 0.627666 0.001119 -1.405428 2.323142 -0.005108 2.451194 0.000000 0.000000 0.000000 -0.589638 13.250397 9.960155 -69.307726 -6.104053 11.035492 6.806010 -88.687801 0.158622 5.364605 -12.691739 0.072741 5.438651 -12.665948 0.000000 0.000000 0.000000 0.000000 0.000000 0.000000 0.000000 -0.093515 -14.260502 7.620927 61.869694 4.405039 18.998633 21.750841 69.706961 0.286286 -0.258605 10.034995 0.141816 -0.270428 10.038054 0.000000 0.000000 0.000000 0.000000 0.000000 0.000000 0.000000 
